<svg height="512" viewBox="0 0 128 128" width="512" xmlns="http://www.w3.org/2000/svg"><g><path d="m68.852 98.869 1.711 9.194a1.753 1.753 0 0 0 1.719 1.431 1.68 1.68 0 0 0 .322-.031 1.749 1.749 0 0 0 1.4-2.04l-1.712-9.194a1.75 1.75 0 0 0 -3.441.64z"/><path d="m115.5 4.75h-103a7.759 7.759 0 0 0 -7.75 7.75v71.5a7.759 7.759 0 0 0 7.75 7.75h38.314l-4.1 22h-6.381a7.759 7.759 0 0 0 -7.75 7.75 1.75 1.75 0 0 0 1.75 1.75h59.334a1.75 1.75 0 0 0 1.75-1.75 7.759 7.759 0 0 0 -7.75-7.75h-6.383l-4.1-22h38.316a7.759 7.759 0 0 0 7.75-7.75v-71.5a7.759 7.759 0 0 0 -7.75-7.75zm-23.96 115h-55.08a4.257 4.257 0 0 1 3.873-2.5h47.334a4.257 4.257 0 0 1 3.873 2.5zm-13.816-6h-27.448l4.1-22h19.25zm42.026-29.75a4.255 4.255 0 0 1 -4.25 4.25h-103a4.255 4.255 0 0 1 -4.25-4.25v-71.5a4.255 4.255 0 0 1 4.25-4.25h103a4.255 4.255 0 0 1 4.25 4.25z"/><path d="m115.5 10.75h-103a1.75 1.75 0 0 0 -1.75 1.75v65.5a1.75 1.75 0 0 0 1.75 1.75h103a1.75 1.75 0 0 0 1.75-1.75v-65.5a1.75 1.75 0 0 0 -1.75-1.75zm-1.75 65.5h-99.5v-62h99.5z"/><path d="m27.996 29.061v11.401h2.603v-14.424h-2.099l-4.052 2.75 1.071 1.848z"/><path d="m42.023 40.714c3.7 0 6.3-3.086 6.3-7.474 0-4.368-2.6-7.454-6.3-7.454-3.716 0-6.34 3.086-6.34 7.454 0 4.388 2.624 7.474 6.34 7.474zm0-12.535c2.121 0 3.633 2.079 3.633 5.061s-1.512 5.081-3.633 5.081c-2.141 0-3.652-2.1-3.652-5.081s1.511-5.061 3.652-5.061z"/><path d="m59.054 40.714c3.7 0 6.3-3.086 6.3-7.474 0-4.368-2.6-7.454-6.3-7.454-3.716 0-6.34 3.086-6.34 7.454 0 4.388 2.624 7.474 6.34 7.474zm0-12.535c2.121 0 3.633 2.079 3.633 5.061s-1.512 5.081-3.633 5.081c-2.14 0-3.652-2.1-3.652-5.081s1.512-5.061 3.652-5.061z"/><path d="m72.642 29.061v11.401h2.604v-14.424h-2.1l-4.053 2.75 1.071 1.848z"/><path d="m83.226 29.061v11.401h2.604v-14.424h-2.1l-4.052 2.75 1.072 1.848z"/><path d="m97.253 40.714c3.7 0 6.3-3.086 6.3-7.474 0-4.368-2.6-7.454-6.3-7.454-3.715 0-6.339 3.086-6.339 7.454 0 4.388 2.624 7.474 6.339 7.474zm0-12.535c2.122 0 3.633 2.079 3.633 5.061s-1.511 5.081-3.633 5.081c-2.14 0-3.652-2.1-3.652-5.081s1.512-5.061 3.652-5.061z"/><path d="m27.996 53.061v11.401h2.603v-14.424h-2.099l-4.052 2.75 1.071 1.848z"/><path d="m42.023 64.714c3.7 0 6.3-3.086 6.3-7.474 0-4.368-2.6-7.454-6.3-7.454-3.716 0-6.34 3.086-6.34 7.454 0 4.388 2.624 7.474 6.34 7.474zm0-12.535c2.121 0 3.633 2.079 3.633 5.061s-1.512 5.081-3.633 5.081c-2.141 0-3.652-2.1-3.652-5.081s1.511-5.061 3.652-5.061z"/><path d="m59.054 64.714c3.7 0 6.3-3.086 6.3-7.474 0-4.368-2.6-7.454-6.3-7.454-3.716 0-6.34 3.086-6.34 7.454 0 4.388 2.624 7.474 6.34 7.474zm0-12.535c2.121 0 3.633 2.079 3.633 5.061s-1.512 5.081-3.633 5.081c-2.14 0-3.652-2.1-3.652-5.081s1.512-5.061 3.652-5.061z"/><path d="m69.744 57.24c0 4.388 2.625 7.474 6.341 7.474 3.7 0 6.3-3.086 6.3-7.474 0-4.368-2.6-7.454-6.3-7.454-3.716 0-6.341 3.086-6.341 7.454zm6.341-5.061c2.121 0 3.632 2.079 3.632 5.061s-1.511 5.081-3.632 5.081c-2.142 0-3.654-2.1-3.654-5.081s1.512-5.061 3.654-5.061z"/><path d="m89.673 53.061v11.401h2.604v-14.424h-2.1l-4.052 2.75 1.07 1.848z"/><path d="m96.708 52.788 1.071 1.848 2.478-1.575v11.401h2.604v-14.424h-2.1z"/></g></svg>