<svg width="100" height="100" viewBox="0 0 100 100" fill="none" xmlns="http://www.w3.org/2000/svg">
<path d="M85.4166 0H39.5835C39.5835 0 39.5835 0 39.1669 0C39.1669 0 39.1669 0 38.7503 0C38.3337 0 37.9169 0.416601 37.9169 0.416601L12.917 25.4166C12.5 25.8333 12.5 25.8333 12.5 26.2499V26.6666V27.0832V97.9164C12.5 99.1664 13.3334 99.9998 14.5834 99.9998H85.4166C86.6666 99.9998 87.5 99.1664 87.5 97.9164V2.08339C87.5 0.833397 86.6666 0 85.4166 0V0ZM37.5001 7.08338V25H19.5835L37.5001 7.08338ZM31.2501 83.3332C30.0001 83.3332 29.1667 82.4998 29.1667 81.2498V73.7499L28.7501 74.1665C27.9167 74.9999 26.6667 74.9999 25.8333 74.1665C24.9999 73.3331 24.9999 72.0831 25.8333 71.2497L29.9999 67.0831C30.4165 66.6665 31.6665 66.2497 32.0833 66.6665C32.9167 67.0831 33.3333 67.9165 33.3333 68.7499V81.2498H33.3335C33.3335 82.4998 32.5001 83.3332 31.2501 83.3332ZM35.4167 58.3333H27.0833C25.8333 58.3333 24.9999 57.4999 24.9999 56.2499V43.7499C24.9999 42.4999 25.8333 41.6665 27.0833 41.6665H35.4167C36.6667 41.6665 37.5001 42.4999 37.5001 43.7499V56.2499C37.5001 57.4999 36.6667 58.3333 35.4167 58.3333ZM50.0001 81.2498C50.0001 82.4998 49.1667 83.3332 47.9167 83.3332H39.5833C38.3333 83.3332 37.4999 82.4998 37.4999 81.2498V68.7499C37.4999 67.4999 38.3333 66.6665 39.5833 66.6665H47.9167C49.1667 66.6665 50.0001 67.4999 50.0001 68.7499V81.2498ZM47.9167 58.3333C46.6667 58.3333 45.8333 57.4999 45.8333 56.2499V48.7499L45.4167 49.1665C44.5833 49.9999 43.3333 49.9999 42.4999 49.1665C41.6665 48.3331 41.6665 47.0831 42.4999 46.2497L46.6665 42.0831C47.0831 41.6665 48.3331 41.2497 48.7499 41.6665C49.5833 42.0831 49.9999 42.9165 49.9999 43.7499V56.2499H50.0001C50.0001 57.4999 49.1667 58.3333 47.9167 58.3333ZM60.4167 83.3332C59.1667 83.3332 58.3333 82.4998 58.3333 81.2498V73.7499L57.9167 74.1665C57.0833 74.9999 55.8333 74.9999 54.9999 74.1665C54.1665 73.3331 54.1665 72.0831 54.9999 71.2497L59.1665 67.0831C59.5831 66.6665 60.8331 66.2497 61.2499 66.6665C62.0833 67.0831 62.4999 67.9165 62.4999 68.7499V81.2498H62.5001C62.5001 82.4998 61.6667 83.3332 60.4167 83.3332V83.3332ZM60.4167 58.3333C59.1667 58.3333 58.3333 57.4999 58.3333 56.2499V48.7499L57.9167 49.1665C57.0833 49.9999 55.8333 49.9999 54.9999 49.1665C54.1665 48.3331 54.1665 47.0831 54.9999 46.2497L59.1665 42.0831C59.5831 41.6665 60.8331 41.2497 61.2499 41.6665C62.0833 42.0831 62.4999 42.9165 62.4999 43.7499V56.2499H62.5001C62.5001 57.4999 61.6667 58.3333 60.4167 58.3333ZM72.9167 83.3332C71.6667 83.3332 70.8333 82.4998 70.8333 81.2498V73.7499L70.4167 74.1665C69.5833 74.9999 68.3333 74.9999 67.4999 74.1665C66.6665 73.3331 66.6665 72.0831 67.4999 71.2497L71.6665 67.0831C72.0831 66.6665 73.3331 66.2497 73.7499 66.6665C74.5833 67.0831 74.9999 67.9165 74.9999 68.7499V81.2498H75C75 82.4998 74.1667 83.3332 72.9167 83.3332V83.3332ZM72.9167 58.3333C71.6667 58.3333 70.8333 57.4999 70.8333 56.2499V48.7499L70.4167 49.1665C69.5833 49.9999 68.3333 49.9999 67.4999 49.1665C66.6665 48.3331 66.6665 47.0831 67.4999 46.2497L71.6665 42.0831C72.0831 41.6665 73.3331 41.2497 73.7499 41.6665C74.5833 42.0831 74.9999 42.9165 74.9999 43.7499V56.2499H75C75 57.4999 74.1667 58.3333 72.9167 58.3333Z" fill="#212121"/>
<path d="M41.6667 70.8333H45.8333V79.1666H41.6667V70.8333Z" fill="#212121"/>
<path d="M29.1667 45.8333H33.3333V54.1667H29.1667V45.8333Z" fill="#212121"/>
</svg>
