<svg width="100" height="100" viewBox="0 0 100 100" fill="none" xmlns="http://www.w3.org/2000/svg">
<path d="M52.9705 52.9705V100H100V52.9705H52.9705ZM89.8213 84.4064H63.149V78.4656H89.8213V84.4064ZM89.8213 74.5051H63.149V68.5643H89.8213V74.5051Z" fill="#212121"/>
<path d="M0 52.9705V100H47.0297V52.9705H0ZM35.0451 83.815L30.8443 88.0158L23.5146 80.6859L16.185 88.0158L11.9844 83.815L19.3141 76.4852L11.9844 69.1555L16.1852 64.9547L23.5148 72.2846L30.8445 64.9547L35.0453 69.1555L27.7156 76.4854L35.0451 83.815Z" fill="#212121"/>
<path d="M52.9705 0V47.0295H100V0H52.9705ZM63.149 26.4852V20.5443H89.8213V26.4852H63.149Z" fill="#212121"/>
<path d="M0 0V47.0297H47.0297V0H0ZM36.851 26.4854H26.4852V36.8512H20.5443V26.4854H10.1785V20.5443H20.5443V10.1787H26.4852V20.5445H36.851V26.4854Z" fill="#212121"/>
</svg>
